<?xml version="1.0" encoding="utf-8"?>
<svg version="1.1" id="Calque_1" xmlns="http://www.w3.org/2000/svg" xmlns:xlink="http://www.w3.org/1999/xlink" x="0px" y="0px"
	 viewBox="0 2 595.3 595.3"  >
<style type="text/css">
	.st0{fill:#ffffff;}
	.st1{fill:#ffffff;}
</style>
<g>
	<path class="st1" d="M237.8,402.4c0-34.9,28.3-63.3,63.3-63.3c23.3,0,43.6,12.6,54.6,31.3c-11.4-32.4-42.3-55.7-78.6-55.7
		c-46,0-83.3,37.3-83.3,83.3c0,46,37.3,83.3,83.3,83.3c25.6,0,48.5-11.6,63.8-29.8c-10.9,8.8-24.7,14.1-39.8,14.1
		C266.1,465.7,237.8,437.4,237.8,402.4z"/>
</g>
<path class="st0" d="M310.9,351.2c-29.3,0-53,23.7-53,53s23.7,53,53,53s53-23.7,53-53S340.1,351.2,310.9,351.2z M316.7,439.5
	c-18.7,0-33.9-15.2-33.9-33.9c0-18.7,15.2-33.9,33.9-33.9s33.9,15.2,33.9,33.9C350.6,424.4,335.4,439.5,316.7,439.5z"/>
<polygon class="st0" points="363.9,409.8 349.5,425.8 370.3,245.3 401.4,251.5 "/>
</svg>
